<?xml version="1.0" encoding="iso-8859-1"?>
<svg version="1.1" id="Layer_1" xmlns="http://www.w3.org/2000/svg" xmlns:xlink="http://www.w3.org/1999/xlink" x="0px" y="0px"
	 width="32.613px" height="32.305px" viewBox="0 0 32.613 32.305" enable-background="new 0 0 32.613 32.305" xml:space="preserve">
<g>
	<path fill="#141515" d="M16.321,2.081c2.173,0,4.26,0.485,6.118,1.398l-0.6,0.571c-0.772,0.771-0.658,1.427-0.429,2.083
		c-1.544-0.771-3.259-1.199-5.089-1.199c-3.116,0-5.918,1.256-7.976,3.282c-2.03,2.026-3.288,4.852-3.288,7.934
		c0,3.111,1.258,5.908,3.288,7.934c2.058,2.055,4.86,3.311,7.976,3.311c3.087,0,5.918-1.256,7.947-3.311
		c2.03-2.026,3.288-4.823,3.288-7.934c0-1.798-0.429-3.482-1.172-4.994c0.686,0.257,1.372,0.4,2.173-0.4l0,0l0.543-0.542
		c0.829,1.798,1.315,3.824,1.315,5.936c0,3.881-1.572,7.42-4.145,9.96c-2.544,2.54-6.061,4.138-9.948,4.138
		c-3.916,0-7.433-1.598-9.977-4.138c-2.573-2.54-4.145-6.079-4.145-9.96s1.572-7.392,4.145-9.96
		C8.888,3.651,12.405,2.081,16.321,2.081L16.321,2.081z M24.926,5.02c0.486,0.342,0.943,0.742,1.344,1.17
		c0.486,0.485,0.915,0.97,1.315,1.484l-0.658,0.656l-1.258-0.457l-0.8-0.314l0.086-0.057L24.64,6.647l-0.372-0.97L24.926,5.02z"/>
	<path fill="#141515" d="M16.321,7.874c1.229,0,2.401,0.285,3.431,0.771l-2.23,2.226c-0.4-0.086-0.8-0.143-1.201-0.143
		c-1.515,0-2.859,0.628-3.859,1.598l0,0c-0.972,0.97-1.572,2.34-1.572,3.824c0,1.513,0.6,2.854,1.572,3.824l0,0
		c1.001,0.999,2.344,1.598,3.859,1.598c1.487,0,2.83-0.599,3.831-1.598c0.972-0.97,1.572-2.312,1.572-3.824
		c0-0.457-0.057-0.913-0.172-1.341l2.23-2.198c0.515,1.056,0.8,2.283,0.8,3.539c0,2.283-0.915,4.367-2.43,5.851
		c-1.487,1.484-3.545,2.426-5.832,2.426s-4.374-0.942-5.86-2.426l0,0c-1.515-1.513-2.43-3.567-2.43-5.851s0.915-4.338,2.43-5.851
		l0,0C11.947,8.816,14.034,7.874,16.321,7.874L16.321,7.874z"/>
	<path fill="none" stroke="#141515" stroke-width="2.8539" stroke-miterlimit="10" d="M16.321,17.178
		c0.543,0,1.001-0.457,1.001-1.027c0-0.571-0.457-1.027-1.001-1.027c-0.572,0-1.029,0.457-1.029,1.027
		C15.292,16.722,15.749,17.178,16.321,17.178L16.321,17.178z"/>
	<path fill-rule="evenodd" clip-rule="evenodd" fill="#141515" d="M22.868,5.049l4.831-4.823c0.257-0.257,0.8-0.342,0.915,0
		l0.715,1.941c0.143,0.314,0.257,0.656,0,0.913l-4.831,4.823c-0.257,0.257-0.8,0.342-0.915,0l-0.715-1.941
		C22.725,5.648,22.61,5.306,22.868,5.049L22.868,5.049z"/>
	<path fill-rule="evenodd" clip-rule="evenodd" fill="#141515" d="M27.527,9.729l4.86-4.823c0.257-0.257,0.343-0.799,0-0.913
		L30.443,3.28c-0.343-0.143-0.658-0.257-0.915,0l-4.831,4.823c-0.257,0.257-0.343,0.799,0,0.913l1.915,0.713
		C26.956,9.872,27.299,9.986,27.527,9.729L27.527,9.729z"/>
	<path fill-rule="evenodd" clip-rule="evenodd" fill="#141515" d="M15.006,15.409L26.813,3.622c0.543-0.542,1.458-0.542,1.973,0l0,0
		c0.543,0.514,0.543,1.427,0,1.969L16.979,17.378c-0.543,0.542-1.429,0.542-1.973,0l0,0C14.463,16.836,14.463,15.951,15.006,15.409
		L15.006,15.409z"/>
</g>
</svg>
