<?xml version="1.0" encoding="iso-8859-1"?>
<svg version="1.1" id="Layer_1" xmlns="http://www.w3.org/2000/svg" xmlns:xlink="http://www.w3.org/1999/xlink" x="0px" y="0px"
	 width="31.062px" height="31.009px" viewBox="0 0 31.062 31.009" enable-background="new 0 0 31.062 31.009" xml:space="preserve">
<g>
	<path fill="#141515" d="M19.913,22.118c-0.543-0.457-1.086-0.913-1.658-1.398c-1.172,1.313-2.973,3.596-4.517,4.566
		c-2.23,1.37-5.117,0.656-6.89-1.113c-1.772-1.769-2.487-4.68-1.115-6.878c0.972-1.57,3.23-3.368,4.545-4.538
		c-0.457-0.542-0.943-1.084-1.372-1.627c-3.888,3.482-7.633,6.421-5.403,11.815c0.829,2.055,2.516,3.71,4.545,4.566
		C13.595,29.795,16.539,25.828,19.913,22.118L19.913,22.118z M6.962,30.137c-2.744-1.142-4.974-3.339-6.089-6.107
		c-1.887-4.538-0.6-8.647,2.744-11.987l7.547-6.792c1.715,1.998,3.459,3.91,5.26,5.822c-1.858,1.684-6.975,5.622-8.262,7.706
		c-1.344,2.169,1.915,5.422,4.059,4.081c2.087-1.284,6.061-6.393,7.719-8.248c1.944,1.769,3.859,3.51,5.832,5.251l-6.804,7.534
		C15.624,30.737,11.536,32.021,6.962,30.137L6.962,30.137z"/>
	<polygon fill-rule="evenodd" clip-rule="evenodd" fill="#141515" points="16.11,2.198 18.054,4.167 15.081,7.135 22.171,4.937 
		20.227,2.968 23.2,0 	"/>
	<polygon fill-rule="evenodd" clip-rule="evenodd" fill="#141515" points="28.86,14.926 26.888,12.985 23.915,15.953 26.116,8.847 
		28.06,10.816 31.062,7.848 	"/>
</g>
</svg>
