<?xml version="1.0" encoding="utf-8"?>
<svg version="1.1" id="Layer_1" xmlns="http://www.w3.org/2000/svg" xmlns:xlink="http://www.w3.org/1999/xlink" x="0px" y="0px"
	 width="94px" height="94px" viewBox="0 0 94 94" style="enable-background:new 0 0 94 94;" xml:space="preserve">
<clipPath id="myClip">
<g id="atom">
	<path class="st1" d="M91.57,46.47c0-8.29-11.53-13.08-18.41-15.08c1.7-6.96,3.31-19.3-3.87-23.45c-2.06-1.13-4.45-1.49-6.74-1.02
		c-5.77,1.04-11.83,5.87-15.52,9.41c-5.17-4.97-15.08-12.54-22.29-8.41c-7.19,4.13-5.58,16.49-3.87,23.45
		c-6.9,1.99-18.44,6.77-18.44,15.08s11.53,13.06,18.41,15.08l-0.01,0.05c-1.7,6.96-3.31,19.28,3.87,23.45
		c7.19,4.15,17.1-3.43,22.28-8.4c1.25,1.19,2.48,2.25,3.68,3.23c4.17,3.36,8.24,5.5,11.84,6.13c2.3,0.49,4.7,0.15,6.77-0.97
		c7.19-4.15,5.58-16.49,3.87-23.45C80.04,59.53,91.57,54.75,91.57,46.47z M49.95,19.25L49.95,19.25
		C49.95,19.25,49.95,19.25,49.95,19.25c2.69-2.58,8-7.02,12.6-8.14c1.57-0.48,3.25-0.32,4.7,0.42c5.01,2.88,3.14,13.88,1.94,18.82
		c-2.1-0.48-4.32-0.89-6.63-1.23c-1.66-0.24-3.36-0.46-5.12-0.65C55.14,25.24,52.63,22.17,49.95,19.25
		C49.95,19.25,49.95,19.25,49.95,19.25v0.01h-0.01C49.94,19.26,49.95,19.26,49.95,19.25z M33.58,59.95
		c-2.69-0.35-5.23-0.81-7.61-1.35c0.72-2.33,1.61-4.78,2.64-7.25C30.12,54.3,31.79,57.18,33.58,59.95z M25.98,34.34
		c2.39-0.54,4.94-0.99,7.61-1.33c-1.79,2.79-3.46,5.67-4.97,8.59C27.59,39.12,26.69,36.68,25.98,34.34z M30.78,46.45
		c2.34-4.87,5.05-9.55,8.09-14.02l0.01,0.02c5.41-0.41,10.82-0.41,16.23,0c2.77,4.01,5.25,8.22,7.43,12.58
		c0.24,0.48,0.48,0.96,0.71,1.42c-0.22,0.48-0.46,0.96-0.71,1.44c-2.18,4.35-4.66,8.56-7.42,12.58c-5.41,0.41-10.82,0.41-16.23,0
		C35.84,56.01,33.12,51.32,30.78,46.45z M62.53,56.55v-0.01h0.01c1.02-1.7,1.98-3.43,2.88-5.18c1.04,2.49,1.94,4.9,2.64,7.26
		c-1.76,0.41-3.6,0.75-5.53,1.05c-0.69,0.11-1.38,0.21-2.09,0.3C61.16,58.84,61.86,57.69,62.53,56.55z M62.56,36.43V36.4h-0.01
		c-0.65-1.14-1.37-2.29-2.09-3.39c0.72,0.09,1.41,0.18,2.09,0.3c1.94,0.3,3.77,0.65,5.53,1.04c-0.72,2.34-1.61,4.78-2.64,7.27
		C64.53,39.86,63.57,38.13,62.56,36.43z M51.97,28.12c-3.31-0.15-6.62-0.15-9.94,0c1.65-2.14,3.31-4.11,4.97-5.91
		C48.76,24.1,50.42,26.07,51.97,28.12z M26.79,11.53c4.99-2.86,13.58,4.23,17.33,7.76c-2.7,2.91-5.21,5.99-7.51,9.22
		c-3.95,0.37-7.87,0.99-11.75,1.86l-0.01-0.02C23.63,25.4,21.78,14.41,26.79,11.53z M21.96,57.58C17.07,56.14,6.6,52.24,6.6,46.49
		c0-5.77,10.46-9.7,15.36-11.11c1.18,3.79,2.61,7.5,4.26,11.11C24.55,50.09,23.12,53.79,21.96,57.58z M26.79,81.44
		c-5.01-2.88-3.13-13.88-1.93-18.85c3.87,0.87,7.81,1.5,11.75,1.86c2.3,3.23,4.8,6.31,7.49,9.22C40.39,77.2,31.81,84.31,26.79,81.44
		z M42.06,64.82c3.31,0.15,6.62,0.15,9.94,0c-1.65,2.14-3.31,4.11-4.97,5.92C45.35,68.94,43.69,66.96,42.06,64.82z M67.17,81.41
		c-1.44,0.72-3.1,0.87-4.64,0.42c-2.66-0.65-5.82-2.46-9.26-5.18c-1.11-0.9-2.22-1.89-3.36-2.97H49.9c2.69-2.91,5.18-6,7.46-9.23
		c1.76-0.17,3.46-0.37,5.12-0.65c2.31-0.33,4.53-0.75,6.63-1.23C70.34,67.52,72.19,78.53,67.17,81.41z M72.08,57.56
		c-1.18-3.78-2.61-7.49-4.26-11.09c1.67-3.6,3.1-7.31,4.26-11.11c4.9,1.44,15.36,5.34,15.36,11.11
		C87.44,52.25,76.98,56.14,72.08,57.56z"/>
	<path class="st1" d="M47.02,52.73c3.47-0.01,6.27-2.83,6.26-6.31c-0.01-3.47-2.83-6.27-6.31-6.26c-3.46,0.01-6.27,2.83-6.26,6.3
		C40.74,49.93,43.56,52.74,47.02,52.73z"/>
</g>
</clipPath>
<style type="text/css">
	.st0{fill:url(#circle_1_);}
	.st1{fill-rule:evenodd;clip-rule:evenodd;}
</style>
<linearGradient id="circle_1_" gradientUnits="userSpaceOnUse" x1="23.4961" y1="87.71" x2="70.5039" y2="6.29" gradientTransform="matrix(1 0 0 -1 0 94)">
	<stop  offset="0.25" style="stop-color:#99FF00"/>
	<stop  offset="1" style="stop-color:#00C134"/>
</linearGradient>
<circle id="circle" class="st0" cx="47" cy="47" r="47"/>

<use clip-path="url(#myClip)" xlink:href="#circle_1_" fill="red" />

</svg>
