<?xml version="1.0" encoding="utf-8"?>
<svg version="1.1" id="Layer_1" xmlns="http://www.w3.org/2000/svg" xmlns:xlink="http://www.w3.org/1999/xlink" x="0px" y="0px"
	 width="78px" height="69.55px" viewBox="0 0 78 69.55" style="enable-background:new 0 0 78 69.55;" xml:space="preserve">
<style type="text/css">
	.st0{fill-rule:evenodd;clip-rule:evenodd;}
</style>
<path class="st0" d="M19.62,20.67c-1.07-4.33-2.69-13.95,1.7-16.47l0,0c4.37-2.5,11.88,3.7,15.16,6.79
	c-2.36,2.55-4.56,5.24-6.57,8.07c-3.46,0.32-6.89,0.87-10.28,1.63L19.62,20.67L19.62,20.67z M34.65,18.72
	c1.44-1.87,2.9-3.6,4.35-5.17c1.54,1.65,2.99,3.37,4.35,5.17C40.45,18.59,37.56,18.59,34.65,18.72z M31.9,22.51
	c4.73-0.36,9.47-0.36,14.2,0c2.42,3.51,4.59,7.19,6.5,11.01c0.21,0.42,0.42,0.84,0.62,1.24c-0.19,0.42-0.4,0.84-0.62,1.26
	c-1.91,3.81-4.08,7.49-6.49,11.01c-4.73,0.36-9.47,0.36-14.2,0c-2.67-3.91-5.05-8.01-7.1-12.27c2.05-4.26,4.42-8.36,7.08-12.27
	L31.9,22.51z M52.6,43.58c0.89-1.49,1.73-3,2.52-4.53c0.91,2.18,1.7,4.29,2.31,6.35c-1.54,0.36-3.15,0.66-4.84,0.92
	c-0.6,0.1-1.21,0.18-1.83,0.26C51.39,45.6,52,44.59,52.6,43.58L52.6,43.58L52.6,43.58z M20.61,24.16c2.09-0.47,4.32-0.87,6.66-1.16
	c-1.57,2.44-3.03,4.96-4.35,7.52C22.02,28.34,21.23,26.21,20.61,24.16L20.61,24.16L20.61,24.16z M41.54,58.58
	c2.35-2.55,4.53-5.25,6.53-8.08c1.54-0.15,3.03-0.32,4.48-0.57c2.02-0.29,3.96-0.66,5.8-1.08c1.07,4.34,2.69,13.97-1.7,16.49l0,0
	c-1.26,0.63-2.71,0.76-4.06,0.37c-2.33-0.57-5.09-2.15-8.1-4.53C43.52,60.39,42.55,59.53,41.54,58.58L41.54,58.58z M22.91,39.05
	c1.32,2.57,2.78,5.09,4.35,7.52c-2.35-0.31-4.58-0.71-6.66-1.18C21.23,43.35,22.01,41.21,22.91,39.05z M19.63,48.88
	c3.39,0.76,6.83,1.31,10.28,1.63c2.01,2.83,4.2,5.52,6.55,8.07c-3.24,3.08-10.75,9.3-15.14,6.79l0,0
	C16.94,62.85,18.58,53.23,19.63,48.88L19.63,48.88L19.63,48.88z M3.65,34.79c0-5.05,9.15-8.49,13.44-9.72
	c1.03,3.32,2.28,6.56,3.73,9.72c-1.46,3.15-2.71,6.39-3.73,9.7C12.81,43.23,3.65,39.82,3.65,34.79z M16.1,47.98
	c-1.49,6.09-2.9,16.87,3.39,20.52l0,0c6.29,3.63,14.96-3,19.49-7.35c1.09,1.04,2.17,1.97,3.22,2.83c3.65,2.94,7.21,4.81,10.36,5.36
	c2.01,0.43,4.11,0.13,5.92-0.85l0,0c6.29-3.63,4.88-14.43,3.39-20.52C67.91,46.2,78,42.02,78,34.77S67.91,23.33,61.89,21.58
	c1.49-6.09,2.9-16.89-3.39-20.52l0,0c-1.8-0.99-3.89-1.3-5.9-0.89C47.55,1.08,42.25,5.31,39.02,8.4C34.5,4.05,25.83-2.57,19.52,1.04
	l0,0c-6.29,3.61-4.88,14.43-3.39,20.52C10.09,23.3,0,27.48,0,34.75s10.09,11.43,16.11,13.19L16.1,47.98z M52.6,25.96
	c-0.57-1-1.2-2-1.83-2.97c0.63,0.08,1.23,0.16,1.83,0.26c1.7,0.26,3.3,0.57,4.84,0.91c-0.63,2.05-1.41,4.18-2.31,6.36
	c-0.79-1.53-1.63-3.04-2.52-4.53L52.6,25.96L52.6,25.96z M41.57,10.97c2.35-2.26,7-6.15,11.03-7.13c1.37-0.42,2.84-0.28,4.11,0.37
	l0,0c4.38,2.52,2.75,12.14,1.7,16.47c-1.84-0.42-3.78-0.78-5.8-1.08c-1.45-0.21-2.94-0.4-4.48-0.57c-2.01-2.83-4.2-5.52-6.55-8.07
	v0.01H41.57z M60.94,44.48c-1.03-3.31-2.28-6.55-3.73-9.7c1.46-3.15,2.71-6.4,3.73-9.72c4.29,1.26,13.44,4.67,13.44,9.72
	S65.23,43.23,60.94,44.48z M34.68,50.83c2.9,0.13,5.79,0.13,8.7,0c-1.44,1.87-2.9,3.6-4.35,5.18C37.56,54.43,36.1,52.7,34.68,50.83z
	"/>
<path class="st0" d="M39.02,40.25c3.04-0.01,5.49-2.48,5.48-5.52c-0.01-3.04-2.48-5.49-5.52-5.48c-3.03,0.01-5.49,2.48-5.48,5.51
	C33.52,37.8,35.99,40.26,39.02,40.25z"/>
</svg>
