<?xml version="1.0" encoding="utf-8"?>
<!-- Generator: Adobe Illustrator 23.0.5, SVG Export Plug-In . SVG Version: 6.00 Build 0)  -->
<svg version="1.1" id="Layer_1" xmlns="http://www.w3.org/2000/svg" xmlns:xlink="http://www.w3.org/1999/xlink" x="0px" y="0px"
	 width="373.84px" height="105.7px" viewBox="0 0 373.84 105.7" style="enable-background:new 0 0 373.84 105.7;"
	 xml:space="preserve">
<style type="text/css">
	.st0{fill:#FEFEFE;}
	.st1{fill:#43FF01;}
	.st2{fill-rule:evenodd;clip-rule:evenodd;fill:#43FF01;}
</style>
<path class="st0" d="M38.88,36.49V8.41h12.84c3.57,0,6.32,1,8.2,2.85c1.67,1.74,2.55,4.1,2.43,6.51c0.24,3.93-2.24,7.52-6,8.7
	l6.86,10h-7.23l-6.12-9h-4.81v9L38.88,36.49z M45.05,22.05h6.26c1.26,0.08,2.52-0.3,3.52-1.08c0.84-0.76,1.29-1.87,1.23-3
	c0.08-1.15-0.4-2.27-1.29-3c-1.04-0.73-2.3-1.09-3.57-1h-6.15C45.05,13.97,45.05,22.05,45.05,22.05z"/>
<polygon class="st0" points="67.64,36.5 67.64,8.41 88.85,8.41 88.85,13.92 73.78,13.92 73.78,19.63 87.05,19.63 87.05,25.11 
	73.78,25.11 73.78,31.02 89.05,31.02 89.05,36.5 "/>
<path class="st0" d="M92.45,36.49l12-28.28h5.72l12,28.28h-6.46l-2.57-6.28h-11.83l-2.57,6.28H92.45z M103.54,24.73h7.49l-3.74-9.1
	L103.54,24.73z"/>
<path class="st0" d="M137.45,36.98c-3.87,0.1-7.6-1.42-10.29-4.2c-5.53-6.04-5.12-15.41,0.92-20.94c4.27-3.92,10.44-4.98,15.78-2.72
	c1.76,0.87,3.36,2.01,4.75,3.4l-3.72,4.25c-0.99-0.97-2.13-1.78-3.37-2.4c-1.22-0.52-2.54-0.77-3.86-0.74
	c-2.22-0.05-4.35,0.88-5.83,2.54c-3.09,3.62-3.09,8.94,0,12.56c1.47,1.68,3.6,2.62,5.83,2.57c1.35,0.03,2.7-0.26,3.92-0.83
	c1.28-0.65,2.46-1.48,3.49-2.48l3.95,4.22c-1.4,1.53-3.11,2.75-5,3.6C141.93,36.66,139.69,37.06,137.45,36.98L137.45,36.98z"/>
<polygon class="st0" points="160.8,36.5 160.8,14.12 152.23,14.12 152.23,8.41 175.55,8.41 175.55,14.12 166.98,14.12 166.98,36.5 
	"/>
<path class="st0" d="M202.34,36.89c-4.39,0.07-8.64-1.53-11.89-4.48l3.66-4.37c2.3,2.09,5.27,3.29,8.38,3.4
	c1.05,0.07,2.09-0.18,3-0.71c0.7-0.42,1.12-1.18,1.09-2c0.01-0.82-0.41-1.58-1.11-2c-1.43-0.75-2.96-1.29-4.55-1.6
	c-1.32-0.33-2.62-0.73-3.89-1.2c-1-0.4-1.95-0.92-2.83-1.54c-0.89-0.6-1.58-1.45-2-2.43c-0.45-1.11-0.67-2.31-0.63-3.51
	c-0.09-2.36,0.93-4.63,2.74-6.14c2.01-1.6,4.52-2.44,7.09-2.34c3.8-0.06,7.49,1.2,10.46,3.57l-3.23,4.65
	c-2.1-1.64-4.64-2.6-7.29-2.77c-0.95-0.05-1.89,0.2-2.69,0.71c-0.6,0.41-0.95,1.1-0.94,1.83c-0.03,0.85,0.42,1.64,1.17,2.05
	c1.56,0.73,3.2,1.28,4.89,1.63c2.46,0.52,4.78,1.58,6.78,3.11c1.48,1.39,2.27,3.36,2.14,5.39c0.12,2.47-0.93,4.85-2.83,6.42
	c-2.16,1.6-4.8,2.41-7.49,2.28L202.34,36.89z"/>
<path class="st0" d="M229.78,36.95c-3.83,0-6.8-1.06-8.95-3.2s-3.23-5.22-3.23-9.28V8.41h6.2v15.91c-0.13,1.86,0.43,3.7,1.57,5.17
	c2.53,2.35,6.44,2.38,9,0.06c1.13-1.41,1.69-3.2,1.57-5V8.45h6.2v15.87c0,4.17-1.09,7.31-3.29,9.45s-5.2,3.22-9.06,3.22
	L229.78,36.95z"/>
<polygon class="st0" points="248.42,36.5 248.42,8.41 255.11,8.41 262.49,20.29 269.89,8.41 276.55,8.41 276.55,36.5 270.41,36.5 
	270.41,18.18 262.49,30.16 262.35,30.16 254.51,18.29 254.51,36.5 "/>
<polygon class="st0" points="283.33,36.5 283.33,8.41 289.99,8.41 297.39,20.29 304.77,8.41 311.46,8.41 311.46,36.5 305.28,36.5 
	305.28,18.18 297.39,30.16 297.22,30.16 289.39,18.29 289.39,36.5 "/>
<rect x="317.92" y="8.41" class="st0" width="6.17" height="28.08"/>
<polygon class="st0" points="337.67,36.5 337.67,14.12 329.13,14.12 329.13,8.41 352.42,8.41 352.42,14.12 343.88,14.12 
	343.88,36.5 "/>
<path class="st0" d="M30.64,105.19l15.15-35.56h7.18l15.18,35.56H60l-3.23-7.87h-15l-3.23,7.91L30.64,105.19z M44.64,90.41h9.41
	l-4.72-11.44L44.64,90.41z"/>
<polygon class="st0" points="73.61,105.19 73.61,69.86 81.99,69.86 91.28,84.81 100.6,69.86 108.97,69.86 108.97,105.19 
	101.25,105.19 101.25,82.13 91.28,97.23 91.08,97.23 81.24,82.27 81.24,105.19 "/>
<path class="st0" d="M130.07,105.7c-5.54,0.08-10.9-1.93-15-5.65l4.6-5.51c3.49,2.85,7,4.28,10.58,4.28c1.3,0.07,2.6-0.23,3.74-0.88
	c0.87-0.55,1.4-1.51,1.37-2.54c-0.01-1.01-0.55-1.94-1.43-2.45c-1.81-0.92-3.73-1.59-5.72-2c-1.66-0.39-3.29-0.89-4.89-1.48
	c-1.26-0.51-2.46-1.16-3.57-1.94c-1.08-0.78-1.94-1.83-2.49-3.05c-0.55-1.41-0.81-2.91-0.77-4.42c-0.1-2.97,1.18-5.82,3.46-7.73
	c2.53-2.01,5.69-3.05,8.92-2.91c4.77-0.09,9.43,1.49,13.15,4.48l-4.06,5.85c-3.32-2.31-6.4-3.48-9.18-3.48
	c-1.19-0.07-2.37,0.24-3.37,0.88c-0.75,0.53-1.19,1.39-1.17,2.31c-0.04,1.07,0.52,2.06,1.46,2.57c1.96,0.91,4.03,1.6,6.15,2.05
	c3.86,1,6.69,2.31,8.52,3.88c1.88,1.75,2.88,4.26,2.72,6.82c0.13,3.08-1.19,6.04-3.57,8c-2.37,1.94-5.52,2.91-9.41,2.91
	L130.07,105.7z"/>
<polygon class="st0" points="158.06,105.19 158.06,77.02 147.31,77.02 147.31,69.86 176.61,69.86 176.61,77.02 165.83,77.02 
	165.83,105.19 "/>
<polygon class="st0" points="182.59,105.19 182.59,69.86 209.26,69.86 209.26,76.79 190.3,76.79 190.3,83.96 207,83.96 207,90.86 
	190.3,90.86 190.3,98.28 209.52,98.28 209.52,105.19 "/>
<path class="st0" d="M216.45,105.19V69.86h16.18c4.49,0,7.92,1.2,10.32,3.6c2.08,2.19,3.16,5.14,3,8.16c0,5.42-2.53,9.09-7.58,11
	l8.63,12.61h-9.09l-7.69-11.3h-6v11.3L216.45,105.19z M224.25,87.04h7.89c1.58,0.09,3.14-0.41,4.37-1.4
	c1.06-0.94,1.63-2.3,1.57-3.71c0.09-1.44-0.5-2.84-1.6-3.77c-1.32-0.92-2.91-1.38-4.52-1.28h-7.72L224.25,87.04z"/>
<path class="st0" d="M253.28,105.19V69.86h13.78c5.55,0,10.06,1.67,13.55,5c6.98,6.9,7.04,18.14,0.14,25.12
	c-0.05,0.05-0.1,0.1-0.14,0.14c-3.52,3.37-8,5.05-13.52,5.05L253.28,105.19z M261.06,98.19h6c5.88,0.18,10.79-4.44,10.97-10.32
	c0.18-5.88-4.44-10.79-10.32-10.97c-0.22-0.01-0.44-0.01-0.65,0h-6L261.06,98.19L261.06,98.19z"/>
<path class="st0" d="M288.62,105.19l15.18-35.56h7.18l15.15,35.56h-8.12l-3.24-7.87h-15l-3.23,7.91L288.62,105.19z M302.62,90.41
	h9.41l-4.69-11.44L302.62,90.41z"/>
<polygon class="st0" points="331.59,105.19 331.59,69.86 339.99,69.86 349.28,84.81 358.6,69.86 366.98,69.86 366.98,105.19 
	359.26,105.19 359.26,82.13 349.28,97.23 349.08,97.23 339.22,82.27 339.22,105.19 "/>
<path class="st1" d="M361.11,17.32v-3l5.69-4.65c0.85-0.66,1.63-1.4,2.32-2.23c0.41-0.54,0.63-1.19,0.63-1.86
	c0.02-0.61-0.2-1.2-0.63-1.63c-0.45-0.41-1.05-0.63-1.66-0.6c-0.61,0-1.21,0.19-1.72,0.54c-0.67,0.49-1.26,1.08-1.77,1.74
	l-2.63-2.11c0.74-1.06,1.68-1.96,2.77-2.65c1.09-0.61,2.32-0.9,3.57-0.86c1.55-0.08,3.08,0.45,4.26,1.46
	c1.1,0.97,1.7,2.39,1.63,3.85c0,0.86-0.18,1.7-0.54,2.48c-0.36,0.72-0.83,1.37-1.4,1.94c-0.8,0.77-1.64,1.49-2.54,2.14l-2.77,2.14
	h7.43v3.3L361.11,17.32L361.11,17.32z"/>
<path class="st2" d="M373.84,50.19H17.12L11.89,92L6.66,50.19H0l6.92,55.39h9.95l6.17-49.37h350.8V50.19z"/>
</svg>
