<?xml version="1.0" encoding="iso-8859-1"?>
<!-- Generator: Adobe Illustrator 23.0.5, SVG Export Plug-In . SVG Version: 6.00 Build 0)  -->
<svg version="1.1" id="Layer_1" xmlns="http://www.w3.org/2000/svg" xmlns:xlink="http://www.w3.org/1999/xlink" x="0px" y="0px"
	 width="53px" height="43px" viewBox="0 0 53 43" enable-background="new 0 0 53 43" xml:space="preserve">
<g>
	<linearGradient id="SVGID_1_" gradientUnits="userSpaceOnUse" x1="15.4111" y1="2.2935" x2="42.4348" y2="49.0998">
		<stop  offset="0" style="stop-color:#99FF00"/>
		<stop  offset="1" style="stop-color:#0BC630"/>
	</linearGradient>
	<path fill="url(#SVGID_1_)" d="M0,43V31.101c0-6.237,0.766-11.352,2.303-15.345C3.838,11.763,6.46,8.37,10.173,5.58
		C13.885,2.79,18.056,0.931,22.69,0v9.519c-3.294,1.86-5.163,4.349-5.61,7.468h5.61V43H0z M30.31,43V31.101
		c0-6.237,0.766-11.352,2.303-15.345c1.535-3.992,4.145-7.385,7.829-10.176S48.311,0.931,53,0v9.519
		c-3.294,1.86-5.163,4.349-5.61,7.468H53V43H30.31z"/>
</g>
</svg>
