<?xml version="1.0" encoding="iso-8859-1"?><svg width="280" height="272" viewBox="0 0 280 272" xmlns="http://www.w3.org/2000/svg" xmlns:xlink="http://www.w3.org/1999/xlink"><svg width="31.062" height="31.009" viewBox="0 0 31.062 31.009" id="feature_1" xmlns="http://www.w3.org/2000/svg"><g fill="#141515"><path d="M19.913 22.118c-.543-.457-1.086-.913-1.658-1.398-1.172 1.313-2.973 3.596-4.517 4.566-2.23 1.37-5.117.656-6.89-1.113-1.772-1.769-2.487-4.68-1.115-6.878.972-1.57 3.23-3.368 4.545-4.538-.457-.542-.943-1.084-1.372-1.627-3.888 3.482-7.633 6.421-5.403 11.815.829 2.055 2.516 3.71 4.545 4.566 5.547 2.284 8.491-1.683 11.865-5.393zM6.962 30.137C4.218 28.995 1.988 26.798.873 24.03c-1.887-4.538-.6-8.647 2.744-11.987l7.547-6.792a168.968 168.968 0 005.26 5.822c-1.858 1.684-6.975 5.622-8.262 7.706-1.344 2.169 1.915 5.422 4.059 4.081 2.087-1.284 6.061-6.393 7.719-8.248a510.502 510.502 0 005.832 5.251l-6.804 7.534c-3.344 3.34-7.432 4.624-12.006 2.74z"/><path fill-rule="evenodd" clip-rule="evenodd" d="M16.11 2.198l1.944 1.969-2.973 2.968 7.09-2.198-1.944-1.969L23.2 0zM28.86 14.926l-1.972-1.941-2.973 2.968 2.201-7.106 1.944 1.969 3.002-2.968z"/></g></svg><svg width="24.52" height="32" viewBox="0 0 27.358 35.703" id="feature_2" x="32" y="32" xmlns="http://www.w3.org/2000/svg"><g fill="#141515"><path fill-rule="evenodd" clip-rule="evenodd" d="M11.549 27.997c-4.288.285-7.519 1.427-7.519 2.797 0 1.57 4.317 2.854 9.663 2.854 5.317 0 9.634-1.284 9.634-2.854 0-1.37-3.259-2.511-7.604-2.797 0-.314-.057-.628-.2-.913v-.029c6.689.257 11.835 1.884 11.835 4.024s-6.118 4.623-13.665 4.623C6.118 35.703 0 33.22 0 31.079s4.974-3.682 11.492-3.996c0 .315-.028.629.057.914zM13.779 7.249a3.633 3.633 0 003.631-3.624A3.633 3.633 0 0013.779 0c-1.973 0-3.602 1.627-3.602 3.624 0 1.998 1.63 3.625 3.602 3.625z"/><path d="M8.919 21.404c-.572-.656-1.344-1.941-1.458-4.252a71.226 71.226 0 01-.057-6.535c2.802-3.71 9.748-3.71 12.578 0a99.58 99.58 0 01-.057 6.535c-.114 2.312-.915 3.596-1.487 4.252l-1.515 7.791c1.801.342 3.03.913 3.03 1.598 0 1.027-2.802 1.855-6.261 1.855s-6.261-.828-6.261-1.855c0-.685 1.201-1.256 3.03-1.598l-1.542-7.791zm1.487-3.282c1.115.314 3.802.885 6.547-.057.314-1.855.229-4.452.2-6.364-1.601-1.256-5.346-1.256-6.918 0-.029 1.912-.144 4.538.171 6.421zm5.146 3.168c-1.372.2-2.659.143-3.745 0l1.144 5.793h1.458l1.143-5.793z"/></g></svg><svg width="32" height="31.7" viewBox="0 0 32.613 32.305" id="feature_3" x="57" y="64" xmlns="http://www.w3.org/2000/svg"><path fill="#141515" d="M16.321 2.081c2.173 0 4.26.485 6.118 1.398l-.6.571c-.772.771-.658 1.427-.429 2.083a11.317 11.317 0 00-5.089-1.199c-3.116 0-5.918 1.256-7.976 3.282a11.21 11.21 0 00-3.288 7.934c0 3.111 1.258 5.908 3.288 7.934 2.058 2.055 4.86 3.311 7.976 3.311 3.087 0 5.918-1.256 7.947-3.311a11.159 11.159 0 003.288-7.934c0-1.798-.429-3.482-1.172-4.994.686.257 1.372.4 2.173-.4l.543-.542a14.206 14.206 0 011.315 5.936c0 3.881-1.572 7.42-4.145 9.96-2.544 2.54-6.061 4.138-9.948 4.138a14.074 14.074 0 01-9.977-4.138C3.772 23.57 2.2 20.031 2.2 16.15s1.572-7.392 4.145-9.96a14.05 14.05 0 019.976-4.109zm8.605 2.939c.486.342.943.742 1.344 1.17.486.485.915.97 1.315 1.484l-.658.656-1.258-.457-.8-.314.086-.057-.315-.855-.372-.97.658-.657z"/><path fill="#141515" d="M16.321 7.874c1.229 0 2.401.285 3.431.771l-2.23 2.226c-.4-.086-.8-.143-1.201-.143-1.515 0-2.859.628-3.859 1.598a5.41 5.41 0 00-1.572 3.824c0 1.513.6 2.854 1.572 3.824a5.402 5.402 0 003.859 1.598c1.487 0 2.83-.599 3.831-1.598a5.36 5.36 0 001.572-3.824c0-.457-.057-.913-.172-1.341l2.23-2.198c.515 1.056.8 2.283.8 3.539 0 2.283-.915 4.367-2.43 5.851-1.487 1.484-3.545 2.426-5.832 2.426s-4.374-.942-5.86-2.426c-1.515-1.513-2.43-3.567-2.43-5.851s.915-4.338 2.43-5.851a8.312 8.312 0 015.861-2.425z"/><path fill="none" stroke="#141515" stroke-width="2.854" stroke-miterlimit="10" d="M16.321 17.178c.543 0 1.001-.457 1.001-1.027 0-.571-.457-1.027-1.001-1.027-.572 0-1.029.457-1.029 1.027 0 .571.457 1.027 1.029 1.027h0z"/><path fill-rule="evenodd" clip-rule="evenodd" fill="#141515" d="M22.868 5.049L27.699.226c.257-.257.8-.342.915 0l.715 1.941c.143.314.257.656 0 .913l-4.831 4.823c-.257.257-.8.342-.915 0l-.715-1.941c-.143-.314-.258-.656 0-.913zM27.527 9.729l4.86-4.823c.257-.257.343-.799 0-.913l-1.944-.713c-.343-.143-.658-.257-.915 0l-4.831 4.823c-.257.257-.343.799 0 .913l1.915.713c.344.143.687.257.915 0z"/><path fill-rule="evenodd" clip-rule="evenodd" fill="#141515" d="M15.006 15.409L26.813 3.622c.543-.542 1.458-.542 1.973 0 .543.514.543 1.427 0 1.969L16.979 17.378a1.4 1.4 0 01-1.973 0 1.394 1.394 0 010-1.969z"/></svg><svg width="6" height="12" viewBox="0 0 6 12" id="icon-fb" x="89" y="96" xmlns="http://www.w3.org/2000/svg"><defs><style>.dcls-1{fill-rule:evenodd}</style></defs><path id="dfb" class="dcls-1" d="M1219.3 43.323v1.651h-1.3V47h1.3v6h2.66v-6h1.79s.17-.969.25-2.028h-2.03v-1.385a.614.614 0 01.58-.484h1.45V41h-1.97c-2.8 0-2.73 2.021-2.73 2.323z" transform="translate(-1218 -41)"/></svg><svg width="21" height="20" viewBox="0 0 21 20" id="icon-gh" x="95" y="108" xmlns="http://www.w3.org/2000/svg"><defs><style>.ecls-1{fill-rule:evenodd}</style></defs><path id="eФигура_18_копия_3" data-name="Фигура 18 копия 3" class="ecls-1" d="M948.608 3359.02l-.211.02.1.17.191-.02-.085-.17m.49.01l.043.2.211.05-.042-.21-.212-.04m.813 1.3l-.127.02-.042.13.085.16a.252.252 0 00.179.1.157.157 0 00.117-.06l.021-.12-.084-.15-.149-.08m2.733.66c-.141.03-.205.08-.19.17l.084.14.148.02a.21.21 0 00.191-.21.2.2 0 00-.233-.12m-.658 0a.173.173 0 00-.212.17c0 .1.061.14.184.14h.049a.2.2 0 00.233-.19l-.064-.08-.19-.04m-1.4 0a.144.144 0 00-.152.12l.021.11.149.1h.169l.106-.15c.014-.07-.049-.12-.191-.16a.435.435 0 00-.1-.02m4.785-15.98a10.689 10.689 0 00-5.292 1.32 9.668 9.668 0 00-3.726 3.64 9.919 9.919 0 00-1.355 5.12 10.081 10.081 0 001.99 6.13 10.194 10.194 0 005.208 3.74.816.816 0 00.209.03.488.488 0 00.32-.11.545.545 0 00.19-.42l-.042-2.52-.466.04a4.411 4.411 0 01-.714.06c-.117 0-.231-.01-.344-.01a3.164 3.164 0 01-1.228-.38 1.659 1.659 0 01-.8-.95l-.17-.33a2.993 2.993 0 00-.423-.66 2.024 2.024 0 00-.593-.53l-.212-.17a.361.361 0 01-.19-.31c.014-.1.176-.14.487-.14l.3.04a4.136 4.136 0 01.635.29 2.16 2.16 0 01.678.74c.009.02.018.03.027.05l-.07.01c-.056.02-.056.11 0 .25l.149.08h.105a.207.207 0 00.034-.03 1.957 1.957 0 001.448.75 1.251 1.251 0 00.273.02 2.776 2.776 0 001.124-.26 2.235 2.235 0 01.678-1.41 11.844 11.844 0 01-2.287-.41 3.455 3.455 0 01-1.778-1.28 5.248 5.248 0 01-.677-2.89 3.167 3.167 0 01.233-1.3 5.288 5.288 0 01.741-1.14 2.291 2.291 0 01-.17-.95 3.779 3.779 0 01.3-1.82 1.034 1.034 0 01.263-.03 2.716 2.716 0 01.88.2 9.7 9.7 0 011.228.58l.55.37a9.3 9.3 0 012.646-.37 9.745 9.745 0 012.689.37l.55-.37a11.84 11.84 0 011.185-.58 2.746 2.746 0 01.9-.2 1.24 1.24 0 01.285.03 4.6 4.6 0 01.3 1.82 3.161 3.161 0 01-.211.99 4.9 4.9 0 01.8 1.04 2.927 2.927 0 01.3 1.36 5.183 5.183 0 01-.72 2.93 3.841 3.841 0 01-1.821 1.24 11.949 11.949 0 01-2.328.41 2.308 2.308 0 01.719 1.9v3.47a.546.546 0 00.191.42.487.487 0 00.32.11.816.816 0 00.209-.03 10.306 10.306 0 007.113-9.87 9.714 9.714 0 00-1.44-5.17 9.984 9.984 0 00-3.852-3.59 11.092 11.092 0 00-5.335-1.32" transform="translate(-945 -3345)"/></svg><svg width="15.07" height="12" viewBox="0 0 15.07 12" id="icon-med" x="116" y="128" xmlns="http://www.w3.org/2000/svg"><defs><style>.fcls-1{fill-rule:evenodd}</style></defs><path id="fmedium" class="fcls-1" d="M1301.64 43.74h-.59a.675.675 0 00-.53.526V51.7a.63.63 0 00.53.486h.59v1.765h-5.39V52.19h1.13v-7.82h-.05l-2.64 9.585h-2.04l-2.6-9.585h-.07v7.82h1.13v1.765h-4.51V52.19h.58a.642.642 0 00.55-.486v-7.439a.686.686 0 00-.55-.526h-.58v-1.765h5.64l1.86 6.937h.05l1.87-6.937h5.62v1.766z" transform="translate(-1286.59 -41.969)"/></svg><svg width="14.216" height="14.219" viewBox="0 0 14.216 14.219" id="icon-sl" x="132" y="140" xmlns="http://www.w3.org/2000/svg"><defs><style>.gcls-1{fill-rule:evenodd}</style></defs><path id="gskack" class="gcls-1" d="M998.762 40.47c4.888-1.466 7.008-.326 8.468 4.562s.33 7.006-4.56 8.472-7 .326-8.47-4.562-.326-7.006 4.562-8.472zm5.078 8.043l.92-.307a.738.738 0 10-.47-1.4l-.92.309-.61-1.83.92-.308a.738.738 0 10-.47-1.4l-.92.309-.32-.954a.738.738 0 00-1.4.468l.32.954-1.9.637-.318-.954a.738.738 0 00-1.4.469l.319.953-.922.308a.738.738 0 00.215 1.437.729.729 0 00.254-.038l.922-.31.612 1.829-.918.315a.737.737 0 00.215 1.436.706.706 0 00.253-.037l.922-.308.319.953a.737.737 0 00.677.5.786.786 0 00.26-.038.74.74 0 00.46-.934l-.32-.953 1.9-.637.32.954a.737.737 0 00.68.5.768.768 0 00.26-.038.738.738 0 00.46-.932zm-1.89-.909l-1.85.617-.617-1.851 1.847-.617z" transform="translate(-993.594 -39.875)"/></svg><svg width="14.96" height="12" viewBox="0 0 14.96 12" id="icon-tw" x="147" y="155" xmlns="http://www.w3.org/2000/svg"><defs><style>.hcls-1{fill-rule:evenodd}</style></defs><path id="htw" class="hcls-1" d="M1080.31 43a1.654 1.654 0 01.03.375 8.5 8.5 0 01-1.03 4.01 8.241 8.241 0 01-2.95 3.259 8.5 8.5 0 01-4.77 1.356 8.638 8.638 0 01-4.71-1.356c.22.02.46.029.74.029a6.145 6.145 0 003.83-1.3 2.857 2.857 0 01-1.8-.592 3.028 3.028 0 01-1.07-1.485c.2.019.38.028.56.028a3.838 3.838 0 00.81-.086 3.108 3.108 0 01-1.75-1.067 2.868 2.868 0 01-.7-1.9v-.06a2.931 2.931 0 001.37.4 3.316 3.316 0 01-.99-1.1 2.91 2.91 0 01-.38-1.456 2.8 2.8 0 01.44-1.514 8.45 8.45 0 002.79 2.25 8.6 8.6 0 003.52.923 4.034 4.034 0 01-.05-.693 3 3 0 01.4-1.515 3.048 3.048 0 011.12-1.11 3.071 3.071 0 012.76-.144 3.454 3.454 0 011.01.691 6.364 6.364 0 001.96-.72 3.017 3.017 0 01-1.35 1.672 6.707 6.707 0 001.76-.49 6.82 6.82 0 01-1.55 1.595z" transform="translate(-1066.88 -40)"/></svg><svg width="16" height="16" viewBox="0 0 16 16" id="icon-web" x="162" y="167" xmlns="http://www.w3.org/2000/svg"><path d="M13.7 2.3C15.2 3.9 16 5.9 16 8s-.8 4.1-2.3 5.7C12.1 15.2 10.1 16 8 16s-4.1-.8-5.7-2.3C.8 12.1 0 10.1 0 8s.8-4.1 2.3-5.7S5.9 0 8 0s4.1.8 5.7 2.3zm-.8 10.6c1-1 1.6-2.2 1.9-3.5-.2.3-.4.4-.5-.3-.1-1.1-1.2-.4-1.8-.8-.7.5-2.2-.9-2 .6.4.7 2.2-.9 1.3.5-.6 1-2.1 3.3-1.9 4.5 0 1.7-1.8.4-2.4-.2-.4-1.1-.1-3.1-1.2-3.7-1.1 0-2.1-.1-2.6-1.4-.2-.9.3-2.3 1.3-2.5 1.5-.9 2 1.1 3.4 1.1.4-.4 1.6-.6 1.7-1.1-.9-.2 1.1-.8-.1-1.1-.7.1-1.1.7-.7 1.2-1.4.3-1.4-1.9-2.7-1.2 0 1.1-2.1.4-.7.1.5-.1-.7-.7-.1-.6.3 0 1.4-.4 1.1-.7.6-.4 1.1.9 1.7 0 .5-.7-.1-.9-.6-.5-.3-.4.5-1.1 1.2-1.4.2-.1.5-.2.7-.1.4.4 1.1.4 1.1-.1-.9-.5-1.9-.7-3-.7-1.5 0-3 .5-4.2 1.4.3.1.5.3.2.5-.2.8-1.2 1.7-2.1 1.6-.4.8-.7 1.6-.8 2.5.7.2.9.7.7.9-.4.3-.6.7-.7 1.2.2 1.4.9 2.8 2 3.8C4.4 14.3 6.1 15 8 15c1.9 0 3.6-.7 4.9-2.1z"/></svg><svg width="17" height="12" viewBox="0 0 17 12" id="icon-yt" x="178" y="183" xmlns="http://www.w3.org/2000/svg"><defs><style>.jcls-1{fill-rule:evenodd}</style></defs><path id="jyt" class="jcls-1" d="M1145.74 48.212v-4.793l4.59 2.4zm10.08-5.625a3.786 3.786 0 00-.67-1.693 2.424 2.424 0 00-1.71-.722c-2.37-.172-5.94-.172-5.94-.172h-.01s-3.57 0-5.94.173a2.424 2.424 0 00-1.71.722 3.663 3.663 0 00-.67 1.693 25.915 25.915 0 00-.17 2.761v1.295a25.912 25.912 0 00.17 2.762 3.664 3.664 0 00.67 1.693 2.885 2.885 0 001.88.729c1.36.131 5.77.172 5.77.172s3.58-.006 5.95-.177a2.441 2.441 0 001.71-.723 3.787 3.787 0 00.67-1.693 25.912 25.912 0 00.17-2.762v-1.296a25.915 25.915 0 00-.17-2.762z" transform="translate(-1139 -40)"/></svg><svg width="18.5" height="18.44" viewBox="0 0 18.5 18.44" id="package-no" x="195" y="195" xmlns="http://www.w3.org/2000/svg"><defs><filter id="kfilter" x="870.25" y="5311.28" width="18.5" height="18.44" filterUnits="userSpaceOnUse"><feFlood result="flood" flood-color="#4e4e4e"/><feComposite result="composite" operator="in" in2="SourceGraphic"/><feBlend result="blend" in2="SourceGraphic"/></filter><style>.kcls-1{fill:#1bce7c;fill-rule:evenodd;filter:url(#kfilter)}</style></defs><path id="kShape_12_copy_21" data-name="Shape 12 copy 21" class="kcls-1" d="M872.372 5329.65l7.119-7.03 7.03 7.11 2.137-2.11-7.03-7.1 7.119-7.03-2.109-2.12-7.119 7.02-7.03-7.11-2.137 2.11 7.03 7.1-7.119 7.03z" transform="translate(-870.25 -5311.28)"/></svg><svg width="19" height="19" viewBox="0 0 19 19" id="package-show_1" x="214" y="214" xmlns="http://www.w3.org/2000/svg"><path class="lcls-1" d="M0 0h5v5H0z"/><path class="lcls-2" d="M7 0h5v5H7z"/><path class="lcls-3" d="M14 0h5v5h-5z"/><path class="lcls-4" d="M0 7h5v5H0z"/><path class="lcls-5" d="M7 7h5v5H7z"/><path class="lcls-6" d="M14 7h5v5h-5z"/><path class="lcls-7" d="M0 14h5v5H0z"/><path class="lcls-8" d="M7 14h5v5H7z"/><path class="lcls-9" d="M14 14h5v5h-5z"/></svg><svg width="19" height="19" viewBox="0 0 19 19" id="package-show_2" x="233" y="233" xmlns="http://www.w3.org/2000/svg"><path class="mcls-1" d="M0 0h19v4H0z"/><path class="mcls-2" d="M0 5h19v4H0z"/><path class="mcls-3" d="M0 10h19v4H0z"/><path class="mcls-4" d="M0 15h19v4H0z"/></svg><svg width="27.562" height="19.09" viewBox="0 0 27.562 19.09" id="package-yes" x="252" y="252" xmlns="http://www.w3.org/2000/svg"><defs><filter id="nfilter" x="869.219" y="5139.19" width="27.562" height="19.09" filterUnits="userSpaceOnUse"><feFlood result="flood" flood-color="#3cea24"/><feComposite result="composite" operator="in" in2="SourceGraphic"/><feBlend result="blend" in2="SourceGraphic"/></filter><style>.ncls-1{fill:#00dd3b;fill-rule:evenodd;filter:url(#nfilter)}</style></defs><path class="ncls-1" d="M-.008 8.49L10.599 19.1 27.57 2.13 25.448.01 10.599 14.85 2.114 6.37z"/></svg></svg>